# AST/ASF file generated using VICON BodyLanguage
# -----------------------------------------------
:version 1.10
:name VICON
:units
  mass 1.0
  length 0.45
  angle deg
:documentation
   .ast/.asf automatically generated from VICON data using
   VICON BodyBuilder and BodyLanguage model FoxedUp or BRILLIANT.MOD
:root
   order TX TY TZ RX RY RZ
   axis XYZ
   position 0 0 0  
   orientation 0 0 0 
:bonedata
  begin
     id 1 
     name lhipjoint
     direction 0.578396 -0.714046 0.394458 
     length 2.21935 
     axis 0 0 0  XYZ
  end
  begin
     id 2 
     name lfemur
     direction 0.34202 -0.939693 0  
     length 6.39105  
     axis 0 0 20  XYZ
    dof rx ry rz
    limits (-160.0 20.0)
           (-70.0 70.0)
           (-60.0 70.0)
  end
  begin
     id 3 
     name ltibia
     direction 0.34202 -0.939693 0   
     length 6.99037   
     axis 0 0 20   XYZ
    dof rx
    limits (-10.0 170.0)
  end
  begin
     id 4 
     name lfoot
     direction 0.0582372 -0.160005 0.985397   
     length 2.06111   
     axis -90 7.62852e-016 20   XYZ
    dof rx rz
    limits (-45.0 90.0)
           (-70.0 20.0)
  end
  begin
     id 5 
     name ltoes
     direction 1.53556e-011 -4.21875e-011 1   
     length 1.04074   
     axis -90 7.62852e-016 20   XYZ
    dof rx
    limits (-90.0 20.0)
  end
  begin
     id 6 
     name rhipjoint
     direction -0.558179 -0.726269 0.40121   
     length 2.182  
     axis 0 0 0  XYZ 
  end
  begin
     id 7 
     name rfemur
     direction -0.34202 -0.939693 0   
     length 6.51172   
     axis 0 0 -20   XYZ
    dof rx ry rz
    limits (-160.0 20.0)
           (-70.0 70.0)
           (-70.0 60.0)
  end
  begin
     id 8 
     name rtibia
     direction -0.34202 -0.939693 0   
     length 7.02607   
     axis 0 0 -20   XYZ
    dof rx
    limits (-10.0 170.0)
 end
 begin
     id 9 
     name rfoot
     direction -0.0788856 -0.216737 0.973038   
     length 1.96734  
     axis -90 -7.62852e-016 -20   XYZ
    dof rx rz
    limits (-45.0 90.0)
           (-20.0 70.0)
  end
  begin
     id 10 
     name rtoes
     direction -1.53567e-011 -4.21783e-011 1   
     length 0.990825   
     axis -90 -7.62852e-016 -20   XYZ
    dof rx
    limits (-90.0 20.0)
  end
  begin
     id 11 
     name lowerback
     direction 0.00668177 0.999323 -0.0361741   
     length 1.7655   
     axis 0 0 0   XYZ
    dof rx ry rz
    limits (-20.0 45.0)
           (-30.0 30.0)
           (-30.0 30.0)
  end
  begin
     id 12 
     name upperback
     direction -0.00222086 0.99851 0.0545167   
     length 1.74912   
     axis 0 0 0   XYZ
    dof rx ry rz
    limits (-20.0 45.0)
           (-30.0 30.0)
           (-30.0 30.0)
  end
  begin
     id 13 
     name thorax
     direction -0.00733971 0.997496 0.0703443   
     length 1.75715   
     axis 0 0 0   XYZ
    dof rx ry rz
    limits (-20.0 45.0)
           (-30.0 30.0)
           (-30.0 30.0)
  end
  begin
     id 14 
     name lowerneck
     direction 0.0279797 0.994795 0.0979765   
     length 1.46939   
     axis 0 0 0   XYZ
    dof rx ry rz
    limits (-20.0 45.0)
           (-30.0 30.0)
           (-30.0 30.0)
  end
  begin
     id 15 
     name upperneck
     direction 0.00339187 0.976776 -0.214238   
     length 1.48018   
     axis 0 0 0   XYZ
    dof rx ry rz
    limits (-20.0 45.0)
           (-30.0 30.0)
           (-30.0 30.0)
  end
  begin
     id 16
     name head
     direction -0.00263506 0.996603 -0.0823096  
     length 1.4976  
     axis 0 0 0   XYZ
    dof rx ry rz
    limits (-20.0 45.0)
           (-30.0 30.0)
           (-30.0 30.0)
  end
  begin
     id 17 
     name lclavicle
     direction 0.894044 0.44508 -0.0508781  
     length 3.03024  
     axis 0 0 0   XYZ
    dof ry rz
    limits (-20.0 10.0)
           (0.0 20.0)
  end
  begin
     id 18 
     name lhumerus
     direction 1 -4.48961e-011 -2.39475e-018   
     length 4.4661   
     axis 180 -30 -90   XYZ
    dof rx ry rz
    limits (-60.0 90.0)
           (-90.0 90.0)
           (-90.0 90.0)
  end
  begin
     id 19
     name lradius
     direction 1 -4.48961e-011 9.29328e-028   
     length 3.41414   
     axis 180 -30 -90   XYZ
    dof rx
    limits (-10.0 170.0)
  end
  begin
     id 20
     name lwrist
     direction 1 -4.48985e-011 1.53461e-026   
     length 1.70707   
     axis -1.09697e-014 90 90   XYZ
    dof ry
    limits (-180.0 0.0)
 end
  begin
     id 21 
     name lhand
     direction 1 -4.48966e-011 3.06923e-026   
     length 0.328298   
     axis -1.95843e-014 90 90   XYZ
    dof rx rz
    limits (-90.0 90.0)
           (-45.0 45.0)
  end
  begin
     id 22 
     name lfingers
     direction 1 -4.48893e-011 6.13845e-026   
     length 0.264682   
     axis -3.91686e-014 90 90   XYZ
    dof rx
    limits (0.0 90.0)
  end
  begin
     id 23
     name lthumb
     direction 0.707107 -6.34876e-011 0.707107   
     length 0.380032   
     axis -90 45 2.85299e-015   XYZ
    dof rx rz
    limits (-45.0 45.0)
           (-45.0 45.0)
  end
  begin
     id 24 
     name rclavicle
     direction -0.936955 0.347862 -0.0332887   
     length 3.26927  
     axis 0 0 0   XYZ 
    dof ry rz
    limits (-10.0 20.0)
           (-20.0 0.0)
  end
  begin
     id 25 
     name rhumerus
     direction -1 -4.4896e-011 1.78637e-018  
     length 4.40431   
     axis 180 30 90   XYZ
    dof rx ry rz
    limits (-90.0 60.0)
           (-90.0 90.0)
           (-90.0 90.0)
  end
  begin
     id 26 
     name rradius
     direction -1 -4.48955e-011 9.34036e-027   
     length 3.04688   
     axis 180 30 90   XYZ
    dof rx
    limits (-10.0 170.0)
  end
  begin
     id 27 
     name rwrist
     direction -1 -4.49011e-011 1.53461e-026   
     length 1.52344   
     axis -1.09697e-014 -90 -90   XYZ
    dof ry
    limits (-180.0 0.0)
  end
  begin
     id 28
     name rhand
     direction -1 -4.48834e-011 3.06923e-026   
     length 0.500489   
     axis -1.95843e-014 -90 -90   XYZ
    dof rx rz
    limits (-90.0 90.0)
           (-45.0 45.0)
  end
  begin
     id 29
     name rfingers
     direction -1 -4.48967e-011 6.13845e-026   
     length 0.403507   
     axis -3.91686e-014 -90 -90   XYZ
    dof rx
    limits (0.0 90.0)
  end
  begin
     id 30
     name rthumb
     direction -0.707107 -6.34826e-011 0.707107   
     length 0.579358   
     axis -90 -45 -2.85299e-015   XYZ
    dof rx rz
    limits (-45.0 45.0)
           (-45.0 45.0)
  end
:hierarchy
  begin
    root lhipjoint rhipjoint lowerback
    lhipjoint lfemur
    lfemur ltibia
    ltibia lfoot
    lfoot ltoes
    rhipjoint rfemur
    rfemur rtibia
    rtibia rfoot
    rfoot rtoes
    lowerback upperback
    upperback thorax
    thorax lowerneck lclavicle rclavicle
    lowerneck upperneck
    upperneck head
    lclavicle lhumerus
    lhumerus lradius
    lradius lwrist
    lwrist lhand lthumb
    lhand lfingers
    rclavicle rhumerus
    rhumerus rradius
    rradius rwrist
    rwrist rhand rthumb
    rhand rfingers
  end

#!OML:ASF H:\IndianDance\Patient Classification 1\Patient 1\Session 1\dancer.ASF
:FULLY-SPECIFIED
:DEGREES
418
root 4.27903 15.1771 2.48208 -174.761 -8.27602 -172.374
lowerback 3.50332 2.39199 1.23985
upperback -6.07994 3.13114 1.06885
thorax -8.33818 1.38497 0.11462
lowerneck -15.8701 7.49522 5.97126
upperneck 20.0373 5.30518 11.5701
head 8.83449 3.86276 3.57702
rclavicle -1.7344e-014 7.95139e-016
rhumerus -14.1545 68.1028 -42.4636
rradius 105.006
rwrist 15.6515
rhand -51.7098 50.6696
rfingers 7.12502
rthumb -24.2293 22.1804
lclavicle -1.7344e-014 7.95139e-016
lhumerus 21.8291 1.15091 29.7721
lradius 62.6763
lwrist 44.0385
lhand -31.8152 24.3928
lfingers 7.12502
lthumb -5.07029 54.3122
rfemur -12.9783 -7.52191 25.4579
rtibia 36.322
rfoot -21.0564 -16.6987
rtoes 3.21997
lfemur -31.9279 4.24597 4.7472
ltibia 17.998
lfoot -32.1548 27.5635
ltoes 7.70034
419
root 4.16794 15.1866 2.41366 -174.577 -7.88953 -172.588
lowerback 3.30782 2.5206 1.59549
upperback -6.21151 3.30295 0.911529
thorax -8.3353 1.43436 -0.259554
lowerneck -15.6586 7.91554 6.20121
upperneck 19.8919 5.99706 11.1869
head 8.73902 4.17124 3.47761
rclavicle -1.66482e-014 -8.74653e-015
rhumerus -14.448 68.1906 -42.5567
rradius 105.111
rwrist 15.5473
rhand -51.6878 50.9936
rfingers 7.12502
rthumb -24.2082 22.5015
lclavicle -1.66482e-014 -8.74653e-015
lhumerus 22.1823 2.96538 30.5259
lradius 61.496
lwrist 46.2198
lhand -29.0529 25.5736
lfingers 7.12502
lthumb -2.40279 55.5398
rfemur -12.6636 -7.09623 24.815
rtibia 36.0306
rfoot -20.8655 -16.9196
rtoes 3.01893
lfemur -31.2299 4.20352 3.84786
ltibia 18.1452
lfoot -32.3123 27.5088
ltoes 6.93519
420
root 4.05473 15.1954 2.34521 -174.405 -7.51724 -172.786
lowerback 3.1374 2.64344 1.96459
upperback -6.35412 3.46756 0.774798
thorax -8.3573 1.47848 -0.619033
lowerneck -15.4412 8.32441 6.42158
upperneck 19.7821 6.66718 10.8072
head 8.65985 4.46982 3.37962
rclavicle -1.15295e-014 4.77083e-015
rhumerus -14.7365 68.298 -42.5933
rradius 105.242
rwrist 15.4412
rhand -51.6503 51.2844
rfingers 7.12502
rthumb -24.1723 22.7875
lclavicle -1.15295e-014 4.77083e-015
lhumerus 22.5231 4.73875 31.2958
lradius 60.3198
lwrist 48.5814
lhand -26.396 26.5054
lfingers 7.12502
lthumb 0.163278 56.4851
rfemur -12.3916 -6.66928 24.2014
rtibia 35.8189
rfoot -20.6452 -17.2163
rtoes 2.83832
lfemur -30.4706 3.78986 3.10209
ltibia 18.1396
lfoot -32.6245 27.687
ltoes 6.39793
421
root 3.94017 15.2046 2.2775 -174.24 -7.15738 -172.96
lowerback 3.00571 2.76636 2.33583
upperback -6.51447 3.63302 0.665895
thorax -8.42082 1.52144 -0.951931
lowerneck -15.2396 8.71845 6.61881
upperneck 19.728 7.30912 10.4387
head 8.60658 4.75636 3.2891
rclavicle 3.34455e-014 -1.59028e-015
rhumerus -15.0282 68.4181 -42.577
rradius 105.383
rwrist 15.3401
rhand -51.6076 51.566
rfingers 7.12502
rthumb -24.1313 23.0637
lclavicle 3.34455e-014 -1.59028e-015
lhumerus 22.8621 6.46505 32.0968
lradius 59.1356
lwrist 51.0361
lhand -23.8729 27.2439
lfingers 7.12502
lthumb 2.60012 57.2078
rfemur -12.1783 -6.23596 23.6369
rtibia 35.6921
rfoot -20.3669 -17.6098
rtoes 2.69557
lfemur -29.696 2.89724 2.59212
ltibia 17.9772
lfoot -33.1525 28.1838
ltoes 6.34701
422
root 3.82524 15.2151 2.21138 -174.074 -6.80638 -173.107
lowerback 2.91963 2.88708 2.69535
upperback -6.69322 3.79617 0.586334
thorax -8.53207 1.56214 -1.24949
lowerneck -15.0727 9.10333 6.81183
upperneck 19.7448 7.9248 10.0733
head 8.58841 5.03281 3.20271
rclavicle -1.71949e-014 1.03368e-014
rhumerus -15.3057 68.5406 -42.5083
rradius 105.52
rwrist 15.2591
rhand -51.5631 51.8687
rfingers 7.12502
rthumb -24.0886 23.3608
lclavicle -1.71949e-014 1.03368e-014
lhumerus 23.1995 8.14945 32.9209
lradius 57.9379
lwrist 53.4655
lhand -21.5101 27.8654
lfingers 7.12502
lthumb 4.88186 57.7891
rfemur -12.0496 -5.80233 23.1364
rtibia 35.6708
rfoot -20.0044 -18.1178
rtoes 2.58343
lfemur -28.9621 1.49337 2.35496
ltibia 17.6944
lfoot -33.9307 29.0113
ltoes 6.85262
423
root 3.71087 15.2275 2.14806 -173.898 -6.4632 -173.24
lowerback 2.88426 3.0075 3.01909
upperback -6.88966 3.95879 0.532081
thorax -8.69506 1.60266 -1.50352
lowerneck -14.9573 9.47667 7.02084
upperneck 19.8402 8.50796 9.69519
head 8.61274 5.2962 3.11324
rclavicle 2.21148e-014 2.34566e-014
rhumerus -15.5857 68.6392 -42.4242
rradius 105.63
rwrist 15.2191
rhand -51.5267 52.1848
rfingers 7.12502
rthumb -24.0538 23.6722
lclavicle 2.21148e-014 2.34566e-014
lhumerus 23.5481 9.7922 33.7722
lradius 56.7121
lwrist 55.6872
lhand -19.2962 28.4103
lfingers 7.12502
lthumb 7.01926 58.2739
rfemur -12.04 -5.38795 22.6986
rtibia 35.7887
rfoot -19.557 -18.7368
rtoes 2.58626
lfemur -28.3341 -0.345592 2.36525
ltibia 17.3588
lfoot -34.9689 30.0789
ltoes 7.95437
424
root 3.59865 15.2415 2.08823 -173.703 -6.12603 -173.368
lowerback 2.89265 3.12465 3.27308
upperback -7.09598 4.11519 0.50263
thorax -8.90035 1.64301 -1.69506
lowerneck -14.9044 9.8402 7.2388
upperneck 20.0008 9.0634 9.30941
head 8.67609 5.54826 3.02455
rclavicle -5.36719e-014 -2.14687e-014
rhumerus -15.8535 68.6931 -42.3282
rradius 105.704
rwrist 15.2148
rhand -51.4917 52.5117
rfingers 7.12502
rthumb -24.0202 23.9948
lclavicle -5.36719e-014 -2.14687e-014
lhumerus 23.9078 11.4002 34.642
lradius 55.4734
lwrist 57.6071
lhand -17.2753 28.9283
lfingers 7.12502
lthumb 8.9697 58.7177
rfemur -12.1843 -5.00875 22.323
rtibia 36.0859
rfoot -19.0141 -19.4785
rtoes 2.7068
lfemur -27.864 -2.37612 2.53302
ltibia 17.0479
lfoot -36.2576 31.1896
ltoes 9.5719
425
root 3.49026 15.2571 2.03238 -173.479 -5.79894 -173.522
lowerback 2.9327 3.2361 3.41165
upperback -7.30533 4.25821 0.484502
thorax -9.13667 1.68351 -1.81188
lowerneck -14.9049 10.1906 7.47658
upperneck 20.1953 9.58925 8.91234
head 8.76699 5.78705 2.93201
rclavicle 3.07619e-014 -1.66979e-014
rhumerus -16.1408 68.6788 -42.2792
rradius 105.743
rwrist 15.1981
rhand -51.4374 52.8535
rfingers 7.12502
rthumb -23.9681 24.3297
lclavicle 3.07619e-014 -1.66979e-014
lhumerus 24.2892 12.9646 35.5076
lradius 54.2373
lwrist 59.1665
lhand -15.4984 29.4217
lfingers 7.12502
lthumb 10.684 59.13
rfemur -12.5142 -4.68531 21.9847
rtibia 36.6003
rfoot -18.4211 -20.3149
rtoes 3.13827
lfemur -27.5719 -4.19907 2.67992
ltibia 16.8221
lfoot -37.6529 32.0585
ltoes 11.4412
426
root 3.38719 15.2747 1.98056 -173.215 -5.48894 -173.741
lowerback 2.97969 3.33738 3.38626
upperback -7.50928 4.37628 0.463826
thorax -9.384 1.72329 -1.83918
lowerneck -14.9413 10.5252 7.7438
upperneck 20.3831 10.0883 8.49276
head 8.86949 6.01214 2.82811
rclavicle -2.13694e-014 -1.11319e-014
rhumerus -16.4663 68.5842 -42.3121
rradius 105.747
rwrist 15.1345
rhand -51.362 53.1823
rfingers 7.12502
rthumb -23.8958 24.649
lclavicle -2.13694e-014 -1.11319e-014
lhumerus 24.693 14.4851 36.3526
lradius 53.0227
lwrist 60.3541
lhand -13.9667 29.8887
lfingers 7.12502
lthumb 12.1613 59.5153
rfemur -13.0553 -4.43829 21.6476
rtibia 37.3605
rfoot -17.8326 -21.2064
rtoes 4.04132
lfemur -27.4486 -5.40394 2.60964
ltibia 16.7079
lfoot -38.8347 32.4822
ltoes 13.1348
427
root 3.29051 15.2936 1.93238 -172.911 -5.20762 -174.057
lowerback 3.01387 3.42635 3.16494
upperback -7.6995 4.46179 0.423644
thorax -9.62367 1.76247 -1.77514
lowerneck -14.9851 10.8363 8.03306
upperneck 20.5141 10.5566 8.06033
head 8.9601 6.22061 2.71239
rclavicle -4.04527e-014 -1.07344e-014
rhumerus -16.8832 68.3985 -42.4863
rradius 105.736
rwrist 14.9501
rhand -51.2475 53.5181
rfingers 7.12502
rthumb -23.786 24.9705
lclavicle -4.04527e-014 -1.07344e-014
lhumerus 25.1308 15.9487 37.1544
lradius 51.8381
lwrist 61.1828
lhand -12.628 30.3253
lfingers 7.12502
lthumb 13.4518 59.871
rfemur -13.8096 -4.30214 21.2765
rtibia 38.3718
rfoot -17.3069 -22.0812
rtoes 5.52161
lfemur -27.4585 -5.68456 2.15378
ltibia 16.7041
lfoot -39.4614 32.3943
ltoes 14.2413
428
root 3.20081 15.3117 1.88722 -172.574 -4.96634 -174.484
lowerback 3.01924 3.49629 2.74565
upperback -7.86501 4.50401 0.354593
thorax -9.83441 1.79774 -1.62602
lowerneck -15.0159 11.1227 8.32592
upperneck 20.553 10.9978 7.63116
head 9.02027 6.41399 2.58998
rclavicle -5.55603e-014 -1.19271e-014
rhumerus -17.3938 68.1268 -42.8059
rradius 105.722
rwrist 14.6409
rhand -51.1108 53.8264
rfingers 7.12502
rthumb -23.6548 25.2617
lclavicle -5.55603e-014 -1.19271e-014
lhumerus 25.592 17.3377 37.8844
lradius 50.7156
lwrist 61.7405
lhand -11.5265 30.7369
lfingers 7.12502
lthumb 14.5133 60.2093
rfemur -14.7589 -4.30458 20.8549
rtibia 39.6115
rfoot -16.8941 -22.8065
rtoes 7.43137
lfemur -27.5566 -4.95212 1.22862
ltibia 16.7928
lfoot -39.414 31.8176
ltoes 14.6163
